<?xml version="1.0" encoding="UTF-8"?><svg id="Layer_1" xmlns="http://www.w3.org/2000/svg" viewBox="0 0 920.6 601"><defs><style>.cls-1{fill:none;stroke:#5a5a5a;stroke-miterlimit:10;}</style></defs><line class="cls-1" x1=".5" y1=".5" x2="920.1" y2=".5"/><line class="cls-1" x1=".5" y1="577.42" x2="920.1" y2="577.42"/><line class="cls-1" x1=".5" y1="554.35" x2="920.1" y2="554.35"/><line class="cls-1" x1=".5" y1="531.27" x2="920.1" y2="531.27"/><line class="cls-1" x1=".5" y1="508.19" x2="920.1" y2="508.19"/><line class="cls-1" x1=".5" y1="485.12" x2="920.1" y2="485.12"/><line class="cls-1" x1=".5" y1="462.04" x2="920.1" y2="462.04"/><line class="cls-1" x1=".5" y1="438.96" x2="920.1" y2="438.96"/><line class="cls-1" x1=".5" y1="415.88" x2="920.1" y2="415.88"/><line class="cls-1" x1=".5" y1="392.81" x2="920.1" y2="392.81"/><line class="cls-1" x1=".5" y1="369.73" x2="920.1" y2="369.73"/><line class="cls-1" x1=".5" y1="346.65" x2="920.1" y2="346.65"/><line class="cls-1" x1=".5" y1="323.58" x2="920.1" y2="323.58"/><line class="cls-1" x1=".5" y1="300.5" x2="920.1" y2="300.5"/><line class="cls-1" x1=".5" y1="277.42" x2="920.1" y2="277.42"/><line class="cls-1" x1=".5" y1="254.35" x2="920.1" y2="254.35"/><line class="cls-1" x1=".5" y1="231.27" x2="920.1" y2="231.27"/><line class="cls-1" x1=".5" y1="208.19" x2="920.1" y2="208.19"/><line class="cls-1" x1=".5" y1="185.12" x2="920.1" y2="185.12"/><line class="cls-1" x1=".5" y1="162.04" x2="920.1" y2="162.04"/><line class="cls-1" x1=".5" y1="138.96" x2="920.1" y2="138.96"/><line class="cls-1" x1=".5" y1="115.88" x2="920.1" y2="115.88"/><line class="cls-1" x1=".5" y1="92.81" x2="920.1" y2="92.81"/><line class="cls-1" x1=".5" y1="69.73" x2="920.1" y2="69.73"/><line class="cls-1" x1=".5" y1="46.65" x2="920.1" y2="46.65"/><line class="cls-1" x1=".5" y1="23.58" x2="920.1" y2="23.58"/><line class="cls-1" x1=".5" y1="600.5" x2="920.1" y2="600.5"/><line class="cls-1" x1=".5" y1=".5" x2=".5" y2="600.5"/><line class="cls-1" x1="884.73" y1=".5" x2="884.73" y2="600.5"/><line class="cls-1" x1="849.36" y1=".5" x2="849.36" y2="600.5"/><line class="cls-1" x1="813.99" y1=".5" x2="813.99" y2="600.5"/><line class="cls-1" x1="778.62" y1=".5" x2="778.62" y2="600.5"/><line class="cls-1" x1="743.25" y1=".5" x2="743.25" y2="600.5"/><line class="cls-1" x1="707.88" y1=".5" x2="707.88" y2="600.5"/><line class="cls-1" x1="672.51" y1=".5" x2="672.51" y2="600.5"/><line class="cls-1" x1="637.14" y1=".5" x2="637.14" y2="600.5"/><line class="cls-1" x1="601.78" y1=".5" x2="601.78" y2="600.5"/><line class="cls-1" x1="566.41" y1=".5" x2="566.41" y2="600.5"/><line class="cls-1" x1="531.04" y1=".5" x2="531.04" y2="600.5"/><line class="cls-1" x1="495.67" y1=".5" x2="495.67" y2="600.5"/><line class="cls-1" x1="460.3" y1=".5" x2="460.3" y2="600.5"/><line class="cls-1" x1="424.93" y1=".5" x2="424.93" y2="600.5"/><line class="cls-1" x1="389.56" y1=".5" x2="389.56" y2="600.5"/><line class="cls-1" x1="354.19" y1=".5" x2="354.19" y2="600.5"/><line class="cls-1" x1="318.82" y1=".5" x2="318.82" y2="600.5"/><line class="cls-1" x1="283.45" y1=".5" x2="283.45" y2="600.5"/><line class="cls-1" x1="248.08" y1=".5" x2="248.08" y2="600.5"/><line class="cls-1" x1="212.71" y1=".5" x2="212.71" y2="600.5"/><line class="cls-1" x1="177.35" y1=".5" x2="177.35" y2="600.5"/><line class="cls-1" x1="141.98" y1=".5" x2="141.98" y2="600.5"/><line class="cls-1" x1="106.61" y1=".5" x2="106.61" y2="600.5"/><line class="cls-1" x1="71.24" y1=".5" x2="71.24" y2="600.5"/><line class="cls-1" x1="35.87" y1=".5" x2="35.87" y2="600.5"/><line class="cls-1" x1="920.1" y1=".5" x2="920.1" y2="600.5"/></svg>