<?xml version="1.0" encoding="UTF-8"?><svg id="Layer_2" xmlns="http://www.w3.org/2000/svg" viewBox="0 0 800 538.33"><defs><style>.cls-1,.cls-2,.cls-3{stroke-width:0px;}.cls-2{fill:#fff;}.cls-3{fill:#17ff58;}</style></defs><g id="Layer_1-2"><rect class="cls-2" x=".5" y=".5" width="799" height="537.33"/><path class="cls-1" d="M799,1v536.33H1V1h798M800,0H0v538.33h800V0h0Z"/><path class="cls-3" d="M577.99,284.11c-13.85-1.38-31.35-5.59-33.36-19.36-1.14-7.81,4.71-15.98,12.47-17.41,35.48,9.86,73.83,9.14,108.91-2.03-50.69-16.12-102.73-32.43-155.85-29.65-1.73.09-3.59.17-5.05-.75-3.22-2.03-2.24-6.9-.86-10.45,5.09-13.18,10.19-26.37,15.28-39.55,1.2-3.11,2.49-6.35,4.99-8.56,2.95-2.6,7.04-3.31,10.89-4.1,34.68-7.06,66.29-28.2,86.07-57.55-23.42,1.05-46.84,2.1-70.26,3.15-6.95.31-14.19.57-20.55-2.26-5.22-2.33-9.34-6.52-13.32-10.63-11.83-12.19-23.67-24.38-35.5-36.56-2.82,18.88-5.65,37.75-8.47,56.63-1.33,8.88-2.75,18.03-7.41,25.71-4.42,7.29-11.36,12.62-17.56,18.48-18.67,17.67-31.93,41.68-54.48,54.01-17.03,9.31-37.19,10.67-55.48,17.13-20.23,7.14-37.67,20.31-54.75,33.27l.09.17c-14.8-3.36-28.8-1.27-43.87-3.08-12.93-1.55-25.25-6.23-37.42-10.88-5.14-1.96-10.33-3.95-14.87-7.04-8.66-5.88-14.49-15.76-15.44-26.19l-.35-.18c-3.56,19.12-5.18,43.12,11.18,53.63,13.91,8.94,36.32,4.1,44.68,18.36,6.13,10.45-.81,24.28-10.72,31.24-9.91,6.96-22.17,9.59-32.97,15.07-25.16,12.77-39.69,39.19-55.84,62.33-16.15,23.14-39.22,46.05-67.43,45.01,15.57,13.36,39.31,14.66,57.94,6.06,18.63-8.6,32.35-25.74,40.29-44.66,1.63-3.89,3.14-8.02,6.19-10.94,10.05-9.62,29.54-.6,39.21-10.6,11.78,17.11,6.54,43.51-10.88,54.82-10.06,6.54-23.86,9.19-29.21,19.92-3.25,6.54-2.3,14.35-4.17,21.41-5.51,20.73-31.25,27.16-52.53,29.88,43.75,17.11,98.83-3.97,119.98-45.92,5.6-11.11,9.42-23.84,19.08-31.68,12.71-10.32,30.89-8.73,47-11.6,36.01-6.43,62.66-35.89,87.7-62.57,5.45-5.81,11.16-11.71,18.44-14.94,13.86-6.15,30.06-1.38,45.02-3.85,19.1-3.15,34.12-17.53,51.44-26.18,2.52-1.26,5.37-2.42,8.09-1.67,3.44.96,5.29,4.54,7.36,7.44,9.9,13.84,29.52,15.46,46.54,15.56,38.7.23,80.09-1.55,111.48-24.18-30.28-6.46-60.92-11.23-91.73-14.29ZM517.34,110.22c4.14,0,7.5,3.36,7.5,7.5s-3.36,7.5-7.5,7.5-7.5-3.36-7.5-7.5,3.36-7.5,7.5-7.5Z"/><path class="cls-1" d="M577.99,282.61c-8.69-.89-18.48-2.47-25.61-7.92-8.17-6.25-8.6-18.75.8-24.28.98-.58,2.33-1.36,3.49-1.45,1.39-.1,3.01.63,4.34.96,3.25.82,6.51,1.55,9.8,2.19,5.79,1.14,11.63,2,17.5,2.6,12.39,1.28,24.91,1.36,37.32.22,13.85-1.26,27.52-4.01,40.79-8.19,1.43-.45,1.42-2.44,0-2.89-45.8-14.57-92.65-29.39-141.16-30-3.09-.04-6.19-.02-9.28.06-2.78.07-6.15.81-8.89.15-5.79-1.38-.62-11.23.57-14.31,4.55-11.77,8.96-23.6,13.65-35.32.95-2.38,2.02-4.96,3.95-6.73,2.26-2.07,5.21-2.88,8.13-3.52,4.83-1.06,9.63-2.08,14.36-3.52,9.34-2.83,18.38-6.67,26.93-11.39,19.21-10.61,35.77-25.68,48.1-43.83.63-.93-.2-2.31-1.3-2.26-21,.94-41.99,1.88-62.99,2.82-9.41.42-20.22,2.09-28.86-2.62-4.19-2.28-7.57-5.75-10.87-9.13-3.65-3.74-7.28-7.5-10.92-11.24-8.31-8.56-16.62-17.12-24.94-25.68-.72-.74-2.34-.48-2.51.66-1.68,11.21-3.35,22.42-5.03,33.63s-2.85,21.61-4.99,32.25c-1.02,5.1-2.43,10.18-4.94,14.76s-6.02,8.34-9.76,11.88c-6.78,6.41-13.55,12.59-19.69,19.64-11.76,13.5-22.52,28.59-37.63,38.62-17.03,11.31-37.75,12.91-56.81,18.95-21.94,6.95-40.51,20.85-58.63,34.6-.66.5-.96,1.27-.54,2.05l.09.17,1.69-2.2c-11.21-2.44-22.59-1.99-33.98-2.39-12.08-.42-23.5-2.98-34.89-6.96-5.55-1.94-11.07-4-16.52-6.2s-10.29-4.62-14.41-8.53c-3.61-3.41-6.49-7.62-8.36-12.23-.92-2.28-1.6-4.67-2.02-7.09-.25-1.45.04-3.06-1.4-3.83-.79-.42-2.02-.1-2.2.9-3.29,17.86-6.11,43,11.2,54.88,8.11,5.57,18.39,6.17,27.72,8.26,9.98,2.24,20.18,7.74,19.13,19.62-1.19,13.41-13.35,21.45-24.63,26.16-11.4,4.76-22.7,8.53-32.61,16.17-18.91,14.6-30.85,35.93-44.33,55.18-15.24,21.78-37.39,45.05-66.13,44.27-1.23-.03-2.07,1.71-1.06,2.56,18.6,15.63,46.12,15.07,66.31,2.8,10.32-6.27,18.85-15.14,25.49-25.18,3.45-5.22,6.35-10.77,8.78-16.52s5-11.81,11.72-13.92c10.9-3.41,24.43,1.51,33.44-7.32l-2.36-.3c6.59,9.82,7.69,22.29,4.05,33.43-1.85,5.64-4.94,10.9-9.16,15.09s-9.49,6.82-14.81,9.33c-5.05,2.39-10.23,4.71-14.52,8.35-4.7,3.98-7.15,9.26-8.07,15.3-1.01,6.66-.96,13.39-4.26,19.46-2.61,4.78-6.61,8.59-11.18,11.5-11.08,7.07-24.71,9.64-37.55,11.31-1.67.22-2.04,2.31-.4,2.95,34.97,13.48,76.54,3.38,103.41-22.18,6.6-6.28,12.32-13.55,16.73-21.52,5.17-9.34,8.25-19.91,14.79-28.47,7.25-9.49,18.19-12.88,29.59-14.37,10.59-1.39,21.23-1.79,31.53-4.85,20.67-6.15,38.15-19.66,53.55-34.34,8.07-7.7,15.71-15.84,23.34-23.98,8.32-8.87,16.48-17.55,29.05-19.59,11.93-1.93,24.1.72,36.04-1.26,10.98-1.81,20.83-7.41,30.12-13.27,4.91-3.1,9.74-6.32,14.75-9.26s12.29-8.44,17.13-3.01c3.2,3.59,5.28,7.65,9.15,10.71,3.55,2.81,7.63,4.83,11.9,6.28,9.32,3.15,19.38,3.67,29.14,3.76,11.32.11,22.66,0,33.96-.7,22.22-1.37,44.77-5.06,64.86-15.08,4.98-2.49,9.74-5.37,14.28-8.6.96-.69,1.01-2.45-.36-2.74-30.42-6.46-61.18-11.25-92.13-14.34-1.92-.19-1.91,2.81,0,3,30.68,3.07,61.17,7.83,91.33,14.23l-.36-2.74c-18.82,13.42-41.38,19.57-64.11,22.11-11.33,1.27-22.74,1.72-34.14,1.84-10.52.11-21.25.41-31.67-1.25-9.87-1.57-19.96-5.17-26.05-13.55-2.48-3.42-4.68-7.64-9.28-8.33-4.97-.74-10.22,2.95-14.3,5.31-9.71,5.62-18.74,12.41-28.84,17.35-5.12,2.51-10.53,4.46-16.17,5.38-6.19,1.02-12.53.73-18.78.57-11.44-.3-22.9.05-32.6,6.87-8.87,6.24-15.87,15.15-23.31,22.96-15.13,15.91-31.18,31.79-50.83,42.04-9.84,5.13-20.35,8.4-31.36,9.76-10.44,1.28-21.3,1.45-31.27,5.16-9.72,3.62-16.47,10.65-21.31,19.67s-8.26,18.88-14.07,27.5c-21.12,31.38-62.63,47.88-99.56,40.02-4.55-.97-9-2.31-13.34-3.99l-.4,2.95c21.6-2.81,50.98-9.42,54.79-35.09,1.14-7.71.84-15.81,6.66-21.77,4.29-4.4,10.17-6.89,15.64-9.48,5.56-2.63,11.02-5.42,15.42-9.8,4.12-4.1,7.21-9.13,9.27-14.54,4.65-12.26,3.68-26.63-3.69-37.61-.54-.8-1.63-1.01-2.36-.3-7.45,7.31-19.81,4.11-29.16,5.83-4.52.83-8.71,2.82-11.58,6.5-3.71,4.74-5.33,10.97-8.03,16.3-10.85,21.41-30.29,39.91-55.09,42.29-13.39,1.28-27.23-2.03-37.64-10.79l-1.06,2.56c24.65.67,44.98-15.93,59.84-34.01,15.65-19.04,26.63-41.69,44.38-59.04,4.54-4.43,9.49-8.45,14.91-11.76s11.78-5.88,17.95-8.25c11.24-4.31,22.89-9,29.47-19.71,5.29-8.6,6.14-19.94-1.64-27.37-6.94-6.62-17.39-7.46-26.33-9.25-5.63-1.13-11.43-2.54-16.22-5.86s-8.31-8.69-10.08-14.46c-3.64-11.89-1.94-25.04.27-37.03l-2.2.9.35.18-.74-1.3c.98,9.32,5.23,18.11,12.24,24.41,8.08,7.25,19.4,10.5,29.41,14.1,11.2,4.02,22.54,7.01,34.46,7.69s24.52-.19,36.58,2.44c1.28.28,2.33-1.02,1.69-2.2l-.09-.17-.54,2.05c16.75-12.71,33.9-25.77,53.89-32.94,18.95-6.8,39.85-7.99,57.57-18.15,15.86-9.1,27.17-23.87,38.8-37.58,6.05-7.13,12.37-13.86,19.3-20.13,7.18-6.49,13.59-13.14,16.87-22.44,4.01-11.38,4.81-24.08,6.58-35.95,1.94-12.98,3.88-25.96,5.82-38.93l-2.51.66c7.75,7.98,15.5,15.96,23.24,23.94,6.76,6.96,13.23,15,21.13,20.7s16.92,5.65,26.06,5.25c10.9-.48,21.8-.98,32.71-1.47,12.52-.56,25.03-1.12,37.55-1.68l-1.3-2.26c-11.86,17.46-27.79,31.97-46.2,42.3-9.12,5.12-18.8,9.2-28.86,12.08-5.09,1.46-10.38,2.18-15.43,3.71-4.71,1.43-7.98,4.27-10.07,8.73-2.45,5.23-4.28,10.8-6.35,16.18-2.4,6.21-4.8,12.43-7.2,18.64-2.1,5.44-9.8,20.56,1.46,21.58,2.77.25,5.66-.16,8.44-.23,3.29-.09,6.57-.1,9.86-.05,6.37.1,12.73.44,19.07,1,12.77,1.13,25.45,3.15,38,5.75,28.06,5.81,55.43,14.46,82.71,23.13v-2.89c-27.08,8.53-55.97,11.01-84.11,7.03-7-.99-13.94-2.37-20.78-4.14-2.94-.76-4.36-1.09-7.22.14-2.29.99-4.34,2.51-5.99,4.38-6.27,7.1-5.73,17.5,1.02,24.05,7.58,7.36,19.39,9.25,29.46,10.28,1.92.2,1.9-2.8,0-3Z"/><path class="cls-1" d="M517.34,111.72c2.46.03,4.78,1.54,5.62,3.89s.14,5.18-1.89,6.8-4.7,1.71-6.82.44-3.27-3.76-2.83-6.18c.52-2.87,3.02-4.92,5.91-4.96,1.93-.03,1.93-3.03,0-3-3.78.05-7.11,2.38-8.45,5.91-1.32,3.47-.2,7.62,2.66,9.97s7.11,2.81,10.38.85,4.9-5.75,4.23-9.47c-.76-4.21-4.62-7.2-8.82-7.26-1.93-.03-1.93,2.97,0,3Z"/></g></svg>