<?xml version="1.0" encoding="UTF-8"?><svg id="Layer_2" xmlns="http://www.w3.org/2000/svg" viewBox="0 0 135.33 139.67"><defs><style>.cls-1{fill:#ed732f;}.cls-1,.cls-2,.cls-3,.cls-4,.cls-5,.cls-6,.cls-7,.cls-8,.cls-9{stroke-width:0px;}.cls-2{fill:#777570;}.cls-3{fill:#36291e;}.cls-4{fill:#a38f16;}.cls-5{fill:#a6a49e;}.cls-6{fill:#c5c5c6;}.cls-7{fill:#a08e79;}.cls-8{fill:#8f7a5d;}.cls-9{fill:#fcda40;}</style></defs><g id="Layer_1-2"><path class="cls-8" d="M119.04,117.04c-1.3,1.1-2.6,2.19-3.9,3.29-.26-.21-.53-.43-.78-.64,1.04-3.27,2.84-6.36,2.9-10.05-1.62.26-2.88.47-4.14.68-1.65-.39-1.43-.93-.15-1.61,1.79-.95,4.41-.69,5-3.4.13-.76.25-1.51.38-2.27.89-2.97,1.11-5.92-.21-8.83-1.07-4.67-2.15-9.34-3.22-14.01.95.73,1.89,1.46,2.84,2.2.18.18.49.55.53.52.56-.38.22-.64-.17-.87,0-.58-.02-1.17-.03-1.75.57.33,1.14.66,1.71.99.69.83,1.39,1.67,2.08,2.5,3.47,5.95,3.49,12.53,3.43,19.11-.5,2.78-1,5.56-1.5,8.33-.97,2.44-2.58,4.36-4.78,5.79ZM120.19,111.6c3.74-7.26,3.14-14.68.69-22.19-.61,7.38.92,14.89-.69,22.19Z"/><path class="cls-7" d="M123.83,111.25c.5-2.78,1-5.56,1.5-8.33,2.35,1.39,4.45-.18,6.65-.58-.09,2.07-2.09,2.95-2.85,4.6-1.76,1.44-3.53,2.87-5.3,4.31Z"/><path class="cls-9" d="M121.89,83.81c6.19,1.81,11.26,4.93,13.44,11.45-.13,1.31-.27,2.61-.4,3.92-.98.34-1.71.92-1.87,2.03-.36.38-.72.76-1.08,1.14-2.2.4-4.3,1.97-6.65.58.06-6.59.04-13.16-3.43-19.11Z"/><path class="cls-9" d="M88.92,67.21c7.66,2.88,16.09,3.81,22.8,9.09.41.33.82.66,1.23.99,0,0-.07-.07-.07-.07.03.86.24,1.62,1.08,2.05,0,0-.05-.06-.05-.06.11.59.36,1.05,1.06,1.04,0,0-.05-.04-.05-.04,1.07,4.67,2.15,9.34,3.22,14.01.07,2.94.14,5.89.21,8.83-.13.76-.25,1.51-.38,2.26-3.98,1.16-7.55,3.44-11.72,4.1-27.15,4.31-54.24,4.19-81.27-1.04-8.73-2.49-17.59-4.68-24.78-10.72.03-.82.05-1.64.08-2.45.22-3.98,2.52-7.58,2.08-11.68,0,0-.22-.13-.22-.13,1.08.18,1.78-.24,2.06-1.31,2.67-2.92,5.34-5.83,8.01-8.75,0,0-.12-.04-.12-.04,1.19-.22,1.84-1.11,2.48-2.02,1.68-.71,3.36-1.42,5.04-2.14.15-.12.29-.25.42-.39.2-.11.35-.26.46-.46,2.07.45,4.54,1.84,6.15,1.17,4.9-2.06,9.86-1.06,14.6-.63,4.9.44,10.35-1.46,14.74,2.36-1.99.83-4.11,1.45-5.94,2.54-3.2,1.91-6.97,3.51-6.6,8.31,5.14,11.11,13.79,14.37,24.69,9.08,2.91-1.41,5.04-.36,7.32,1.11,3,1.94,6.07,3.36,9.6,1.23.34-.41.68-.82,1.03-1.23,0,0,0,.08,0,.08,3.22-1.1,4.37-5.22,8.43-5.38,2.41-.1,5.89-.06,6.32-3.41.38-2.98-2.06-4.99-4.35-6.67-1.04-.77-2.02-1.73-3.46-1.71l.03.04c-.47-.84-1.26-1.04-2.14-1.06-.17-.11-.33-.11-.5,0-5.97-3.17-12.6-2.5-18.98-3.31-1.91-4.04,3.44-2.36,3.69-4.69,3.58-1.09,7.23,2.24,10.8-.14.89.68,1.72,1.5,3,1.21Z"/><path class="cls-9" d="M113.55,120.88c-.27.36-.55.72-.82,1.07-.43.56-.86,1.13-1.3,1.69-3.53,2.42-7.06,4.85-10.59,7.28-1.26.62-2.53,1.25-3.79,1.87-3.03.84-6.07,1.69-9.1,2.53-.85-1.11-1.97-.91-3.16-.78-5.73.62-11.46,1.23-17.2,1.75-10.07.91-20.07-.4-30.07-1.12-3.91-.28-8.39-.18-10.85-4.53-.47-.82-2.18-1.67-2.46-.99-1.51,3.73-4.85,1.48-7.13,2.48-1.64-.76-3.09-1.99-5.01-2.05l.03.07c-.46-.38-.92-.76-1.37-1.14-2.25-2.69-4.5-5.38-6.74-8.07-1.29-2.03-1.22-4.77-3.35-6.36.03-.24-.04-.43-.23-.58-.09-.64-.17-1.27-.26-1.91-.01-.64-.03-1.29-.04-1.93-.03-1.33-.07-2.65-.1-3.98.85-1.27,1.11-2.69,1.09-4.19,7.39,4.48,15.2,7.8,23.91,8.6,1.43.43,2.83.98,4.29,1.26,22.19,4.26,44.52,4.05,66.87,1.71,5.7-.6,11.57-.82,16.95-3.26,1.26-.21,2.53-.41,4.14-.68-.06,3.7-1.86,6.78-2.9,10.05-.27.4-.54.79-.81,1.19Z"/><path class="cls-7" d="M113.12,110.32c-5.39,2.44-11.26,2.66-16.95,3.26-22.34,2.34-44.68,2.54-66.87-1.71-1.46-.28-2.86-.83-4.29-1.25,0-.74-.01-1.49-.02-2.23,27.03,5.23,54.12,5.34,81.27,1.04,4.17-.66,7.74-2.94,11.72-4.1-.59,2.71-3.21,2.45-5,3.4-1.28.68-1.5,1.22.15,1.61Z"/><path class="cls-9" d="M120.19,111.6c1.61-7.3.08-14.81.69-22.19,2.45,7.51,3.05,14.93-.69,22.19Z"/><path class="cls-1" d="M33.79,49.63c-1.48-3.99-3.94-7.62-5.99-11.41-4.83,1.38-9.65,2.75-14.48,4.12-.42,1.28-.84,2.57-1.27,3.85,1.74,1.63,3.47,3.26,5.21,4.88,2.78,1.14,5.52,2.43,8.35,3.44,3.16-.68,6.64-1.62,9.99-1.65-.76-.87-1.33-1.92-1.82-3.23Z"/><path class="cls-4" d="M25.96,65.19s.04,0,.05,0c0,0,.01-.01.02-.02l-.07.03Z"/><path class="cls-4" d="M68.02,63c3.35-1.33,6.29-2.5,9.23-3.67-.04-.21-.1-.41-.18-.61-.32-.37-.72-1.11-.95-1.06-7.16,1.64-14.36.16-21.48.48-6.08.27-11.41-.63-16.64-3.41-.99-.52-1.75-1.13-2.39-1.86-3.35.03-6.84.97-9.99,1.65,1.8.64,3.63,1.18,5.55,1.5.18,0,.35.01.53.03.85.1,1.62.4,2.21,1.1,2.62.07,4.74,1.12,4.85,3.91.12,2.99-2.83,2.32-4.49,2.78-2.67.74-5.48.93-8.24,1.34-.65,1.1-1.77,1.04-2.83,1.15l-.09.05c-.26.26-.51.52-.77.79-.62.37-1.23.75-1.85,1.12,2.07.45,4.55,1.84,6.15,1.17,4.9-2.06,9.86-1.06,14.6-.63,4.9.44,10.35-1.46,14.74,2.36,5.15-.12,10.3-.24,15.46-.37-1.91-4.04,3.44-2.36,3.7-4.69-1.35-2.78-4.58-1.13-7.1-3.13Z"/><path class="cls-9" d="M35.42,52.66c-.67-.83-1.18-1.82-1.63-3.03-1.48-3.99-3.94-7.62-5.99-11.41,0-.99,0-1.97,0-2.95,1.9.97,3.87,1.34,5.5-.28,3.14-3.13,3.95-7.08,3.58-11.38-.35-3.98-3.46-4.8-6.47-5.75.91-1.83,2.38-3.44,2.27-5.68,14.32-15.89,39.17-16.3,55.87-.88,1.86,1.71,3.49,3.62,6.39,2.91,3.24,1.28,6.72,2.14,8.94,5.18.85,2.15.08,3.64-1.68,5.02-2.82,2.2-4.45,4.99-4.79,8.77-1.07,11.85-8.84,19.06-18.05,25.17-.77.12-1.53.24-2.3.36-.32-.37-.72-1.11-.95-1.06-7.16,1.64-14.36.16-21.48.48-6.08.27-11.41-.63-16.64-3.41-1.08-.57-1.91-1.24-2.58-2.07M56.54,54.03l-.16.28.22.05-.06-.33Z"/><path class="cls-5" d="M85.04,93.45c-3.52,2.14-6.6.71-9.6-1.23-2.27-1.47-4.41-2.52-7.32-1.11-10.9,5.29-19.56,2.03-24.7-9.08.75-.14.76-2.42,1.94-.87.64.84.64,1.95,1.83.61,3.89-4.36,9.04-4.7,14.36-4.47,1.12,3.28,4,3.71,6.71,3.5,2.43-.19,5.22-1.05,2.77-4.59,1.65,0,3.3,0,4.96,0,.07.49-.02,1.11.25,1.45,1.43,1.81,3.27,2.79,5.62,2.06.94-.29,2.2-.83,1.98-1.91-.52-2.5-3.07-1.98-4.77-2.73,3.65-1.85,7.59-.29,11.33-.97.16-.12.33-.12.49,0,.46.86,1.23,1.1,2.14,1.06,0,0-.03-.04-.03-.04.86,3.81.73,6.8-3.76,8.7-3.32,1.4-5.36,4.43-3.18,8.46,0,0,0-.08,0-.08-.34.41-.69.82-1.03,1.23Z"/><path class="cls-7" d="M76,76.23c-1.65,0-3.3,0-4.96,0-3.2.03-6.73-2.87-9.48,1.09-5.32-.24-10.47.11-14.36,4.47-1.2,1.34-1.19.23-1.83-.61-1.19-1.55-1.2.73-1.94.87-.37-4.8,3.41-6.41,6.6-8.31,1.83-1.09,3.95-1.71,5.94-2.54,5.15-.12,10.3-.24,15.46-.37,6.38.81,13.01.14,18.98,3.31-3.74.68-7.68-.88-11.33.98-1.03.38-2.06.76-3.08,1.13Z"/><path class="cls-7" d="M86.07,92.3c-2.18-4.03-.14-7.06,3.18-8.46,4.5-1.9,4.62-4.9,3.76-8.7,1.44-.02,2.42.94,3.46,1.71,2.29,1.68,4.73,3.69,4.35,6.67-.43,3.35-3.91,3.31-6.32,3.41-4.06.16-5.21,4.29-8.43,5.38Z"/><path class="cls-8" d="M1.09,102.01c-.22-1.47-1.35-2.75-.89-4.35,7.19,6.03,16.05,8.22,24.78,10.72,0,.75.01,1.49.02,2.24-8.71-.8-16.52-4.12-23.91-8.6Z"/><path class="cls-5" d="M77.25,59.33c2.35,2.93,5.93,4.26,8.67,6.67-3.57,2.38-7.21-.96-10.8.13-1.34-2.78-4.58-1.13-7.1-3.13,3.35-1.33,6.29-2.5,9.23-3.67Z"/><path class="cls-4" d="M87.95,135.32c-.63,1.89-2.87,1.52-3.94,2.81-7.08-.1-14.09.82-21.11,1.49-12.81.41-25.36-1.79-37.95-3.65-1.41-1.28-3.09-1.79-4.97-1.75-.27-.07-.55-.1-.84-.1-.7-.31-1.39-.62-2.09-.93,0-.35.01-.7.02-1.05,2.28-1,5.62,1.25,7.13-2.48.28-.68,1.99.16,2.46.99,2.46,4.34,6.94,4.24,10.85,4.53,10,.72,20.01,2.03,30.07,1.12,5.74-.52,11.47-1.13,17.2-1.75,1.19-.13,2.31-.33,3.16.78Z"/><path class="cls-3" d="M29.13,33.1c-.09-1.99-.18-3.98-.28-5.97.08-.95.16-1.91.24-2.86,0,0-.02.03-.02.03,1.64-.83,1.79-4.22,4.34-3.13,2.67,1.14,1.84,3.89,1.69,6.14-.13,2.04-.98,3.82-2.25,5.39-1.1,1.36-2.32,1.78-3.72.4Z"/><path class="cls-6" d="M29.13,33.1c1.4,1.38,2.62.97,3.72-.4,1.27-1.58,2.12-3.36,2.25-5.39.15-2.25.98-5-1.69-6.14-2.55-1.09-2.7,2.3-4.34,3.13-.21-2.29.68-4.35,1.34-6.45,3.01.97,6.12,1.78,6.46,5.76.37,4.3-.44,8.25-3.58,11.38-1.63,1.62-3.61,1.25-5.5.28-.84-1.52.25-1.84,1.33-2.17Z"/><path class="cls-2" d="M61.56,77.32c2.75-3.95,6.28-1.06,9.48-1.09,2.45,3.54-.34,4.4-2.77,4.59-2.71.21-5.59-.22-6.71-3.5Z"/><path class="cls-2" d="M76,76.23c1.03-.38,2.06-.75,3.08-1.13,1.7.75,4.24.23,4.77,2.73.23,1.08-1.03,1.62-1.98,1.91-2.36.72-4.19-.25-5.62-2.06-.27-.34-.17-.96-.25-1.45Z"/></g></svg>