<?xml version="1.0" encoding="UTF-8"?><svg id="Layer_2" xmlns="http://www.w3.org/2000/svg" viewBox="0 0 219.87 159.5"><defs><style>.cls-1{fill:#f8fafa;}.cls-1,.cls-2,.cls-3,.cls-4,.cls-5,.cls-6{stroke-width:0px;}.cls-2{fill:#d5dee3;}.cls-3{fill:#836e52;}.cls-4{fill:#b7bcbe;}.cls-5{fill:#554535;}.cls-6{fill:#3d2515;}</style></defs><g id="Layer_1-2"><path class="cls-3" d="M189.56,142.16c3.05-2.57,7.25-4.18,10.39-6.05,1.14-.68,2.94-1.46,3.84-2.43.45-.49.64-1.13.87-1.76-6.39-.19-17.63,6.66-20.22,7.71-10.44,4.23-21.98,5.44-33.09,6.6-12.74,1.33-25.53,2.04-38.32,2.78-4.5.26-31.36-2.43-32.79.23,0,.48-.02.96-.02,1.44,4.08,4.43,40.18,2.57,39.61,8.11,4.03,1.05,8.13.68,12.22.56,8.1-2.61,16.74-2.42,24.91-4.73.75-.46,1.5-.92,2.26-1.38.08-2.29,1.92-2.97,3.59-3.54,4.29-1.47,8.65-2.77,12.98-4.13-.49.48-1,.91-1.54,1.3,2.5-1.43,5.09-1.72,7.85-2.08.91-.33,1.83-.66,2.78-.91,1.26-.44,2.54-.86,3.77-1.34.31-.12.61-.25.92-.37Z"/><path class="cls-4" d="M204.98,131.17c.04-.07.08-.13.12-.19-.24-.1-.45-.22-.58-.39-2.26-2.83.08-4.38,3.84-5.2,6.62-5.72,4.94-12.78,7.17-20.52.12-.43.27-.82.42-1.2-.03-.25-.06-.5-.07-.74.1-2.76.2-5.51.3-8.27.95-8.55.63-17.27,3.68-25.52-2.12-4.17-1.2-8.66-1.42-13.03-.11-2.1.37-4.35-1.73-5.85-3.89,5.81-1.55,19.82-2.18,26.88-.7,7.82-1.48,15.16-3.71,22.7-2.05,6.93-3.12,16.88-8.02,22.35-5.07,5.65-15.29,8.86-22.27,10.81-17.39,4.86-36.27,4.68-54.18,4.59-10.11-.05-44.71,2.88-48.68-9.54-1.97,6.46-3.8,12.91.27,19.28.77.64,1.53,1.27,2.29,1.91,1.43-2.66,28.29.03,32.79-.23,12.78-.74,25.58-1.45,38.32-2.78,11.11-1.16,22.65-2.37,33.09-6.6,2.59-1.05,13.83-7.9,20.22-7.71.09-.25.19-.51.33-.74Z"/><path class="cls-4" d="M21.62,135.35c-.1-1.1-.2-2.19-.3-3.29,1.21.89,13.08,8.6,14.6,6.19-.05-.94-.33-1.81-.85-2.61-.42-3.39-1.28-6.87-.03-10.15.55-1.44,1.37-2.5.16-3.87.13-.3.17-.6.1-.92.18-.57.36-1.14.54-1.7.13-.45.61-4.32,1.86-4.1,1.04.19.4,3.51.38,4-9.92,27.56,22.43,29.02,42.13,31.77,4.08,4.43,40.18,2.57,39.61,8.11-25.36.87-50.31-1.62-74.5-9.56-3.34-1.1-6.51-2.91-9.94-3.98-4.59-3.3-9.18-6.6-13.77-9.89Z"/><path class="cls-5" d="M80.22,150.67c-19.7-2.74-52.05-4.2-42.13-31.77,1.8-.85,2.58-.23,3.18,1.66,4.97,15.86,20.55,27.17,36.68,26.76.76.64,1.53,1.28,2.29,1.92,0,.48-.02.96-.02,1.44Z"/><path class="cls-4" d="M162.08,152.58c-.96.22-1.91.43-2.87.65.08-2.29,1.92-2.97,3.59-3.54,4.35-1.49,8.76-2.8,13.15-4.18,0,0-.05-.06-.05-.06-3.84,3.85-9.25,4.69-13.82,7.13Z"/><path class="cls-4" d="M176.06,145.35c-.05.03-.11.07-.16.1,0,0,.05.06.05.06.23-.18.46-.36.7-.54-.2.13-.39.25-.59.38"/><path class="cls-2" d="M206.87,22.34c.64.69,1.28,1.38,1.93,2.07,2.6,3.34,5.48,6.51,6.25,10.89-.99,2.42-.67,4.48,1.63,6.02.01,2.98.03,5.96.04,8.93-3.89,5.81-1.55,19.82-2.18,26.88-.7,7.82-1.48,15.16-3.71,22.7-2.05,6.93-3.12,16.88-8.02,22.35-5.07,5.65-15.29,8.86-22.27,10.81-17.39,4.86-36.27,4.68-54.18,4.59-10.11-.05-44.71,2.88-48.68-9.54,3.6-18.38,9.06-36.24,15.16-53.93,1.04-1.53,1.54-3.21,1.36-5.06.62-.67,1.24-1.34,1.87-2.01,4.17,8.86,7.1,3.27,14.89,2.98,2.98-.11,6.05,1.27,9.01,1.02,3.79-.33,6.39-3.2,9.91-3.47,5.34-.4,13.57,3.88,19.46,4.36,7.87.64,16.26,1.29,24.13.19,13.32-1.86,25.99-10.74,32.36-22.23,2.92-5.27,8.83-14.34,2.78-20.04-5.72-5.38-9.98,2.72-15.91,2.17.12-1.58.24-3.16.36-4.75,3.74.76.89-3.05-.42-5.08-2.55-3.93-9.69-6.06-13.85-7.51-2.7-.94-26.33-6.58-25.68-8.3.74-1.98,13.28.92,14.96,1.13,0,0-.08-.05-.08-.05.3.34.6.69.91,1.03,1.11-.04,2.22-.09,3.33-.13,3.26,1.74,7.32,1.01,10.28,2.28,8.26,3.55,18.26,3.75,24.38,11.7Z"/><path class="cls-6" d="M92.83,74.1c-6.09,17.69-11.55,35.55-15.16,53.93-1.97,6.46-3.8,12.91.27,19.28-16.13.41-31.72-10.9-36.68-26.76-.59-1.89-1.37-2.51-3.18-1.66.03-.49.66-3.82-.38-4-1.25-.22-1.73,3.65-1.86,4.1-2.68-1.17-5.07-1.22-6.74,1.67-2.35,4.09,1.32,13.31,5.96,14.97.52.8.8,1.67.85,2.61-1.52,2.41-13.39-5.3-14.6-6.19-2.73-5.34-4.39,2.3-5.98,1.89-1.27-.33.11-6.08-2.71-7.82-1-1.47-2-2.94-3-4.4-.27-4.92,4.37-50.26,9.72-50.52,3.65-.18,3.91,5.95,5.02,7.69,2.62,4.08,5.01,5.4,8.77,8.14,3.73,2.72,6.24,2.73,7.55,7.7.32,1.22-1.25,5.47-.34,6.35.64.62,5.37-7.57,8.67-8.22,7.8-1.54,16.82,5.83,24.28-.63,1.27-.41,2.31-1.1,2.96-2.3,0,0-.01.01-.01.01,3.59-3.97,5.6-8.59,5.77-13.96.11-.64.21-1.29.32-1.93,2.28,2.14,4.46,4.24,7.23.41.42-.59,2.13-.26,3.25-.36ZM45.65,118.63c-6.57.85,6.56,15.48,8.76,17.11,1.94,1.43,18.09,10.72,19.73,8.01,2.23-3.67-13.18-10.25-15.07-11.46-6.21-3.97-10.16-6.95-13.42-13.66Z"/><path class="cls-4" d="M73.31,92.24c-7.46,6.46-16.47-.9-24.28.63-3.3.65-8.03,8.84-8.67,8.22-.91-.88.66-5.13.34-6.35-1.32-4.97-3.82-4.97-7.55-7.7-3.76-2.74-6.15-4.07-8.77-8.14-1.11-1.74-1.38-7.86-5.02-7.69-5.35.26-9.99,45.6-9.72,50.52-22.64-18.64.75-66.88,8.2-88.35,2.55-4.26,5.1-8.53,7.65-12.79.61-.42,1.22-.84,1.83-1.26,1.16,2.02-.21,3.71-.6,5.57-.79,3.76-1.92,7.92,4.03,8.68-.88,2.21-1.76,4.42-2.65,6.63-3.45,6.14-4.77,12.99-6.62,19.67-.06.26-.17.51-.32.74-1.86.72-4.3.65-4.66,3.4,1.62,4.08,4.25,6.18,8.84,4.53.97.21,1.95.42,2.92.64,1.09,2.31,2.89,3.03,5.32,2.34,1.54.23,3.08.47,4.61.7,2.17,6.25,20.36,6.83,25.48,7.52,7.65,1.03,11.98,1.45,12.6,10.2,0,0,.01-.01.01-.01-1.55.05-2.64.69-2.96,2.3ZM15.98,52.27c.72-.94,3.37-6.11,2.04-7.66-1.07-1.24-4.98,8.25-2.04,7.66Z"/><path class="cls-1" d="M168.05,7.51c-1.68-.2-14.22-3.1-14.96-1.13-.65,1.72,22.98,7.35,25.68,8.3,4.16,1.45,11.3,3.58,13.85,7.51,1.32,2.03,4.16,5.84.42,5.08-11.11-14.48-42.55-16.51-59.26-18.08-24.84-2.34-50.21-2.04-74.52,4.05-2.21-.78-3.86.03-5.17,1.81-1.26.47-2.52.94-3.77,1.41-1.04.1-1.77.63-2.22,1.57-3.37,1.3-4.66,3.93-4.75,7.34-4.95-3.21-6.97,1.11-9.65,3.73-2.48-5.31-.22-10.41.69-15.57,1.39-1.59,2.77-3.18,4.16-4.77,6.66.52,12.35-3.06,18.58-4.37C70.9,1.47,84.85.35,98.89,0c4.16.95,8.35.44,12.54.2,2.84.05,5.69.11,8.53.16.74.04,1.48.08,2.22.12,4.61.36,9.23.72,13.84,1.08,1.04.12,2.09.24,3.13.35.63.21,1.25.43,1.88.64,9.2.59,18.21,2.2,27.01,4.95Z"/><path class="cls-1" d="M168.87,8.49c-.3-.34-.6-.69-.91-1.03.3.34.6.69.91,1.03Z"/><path class="cls-2" d="M34.38,13.51c-.91,5.16-3.17,10.26-.69,15.57-.75,1.42-1.5,2.85-2.25,4.27-.23.08-.47.15-.7.22-5.95-.76-4.82-4.92-4.03-8.68.39-1.87,1.76-3.56.6-5.57,1.79-2.62,4.09-4.63,7.07-5.81Z"/><path class="cls-4" d="M216.66,41.31c-2.29-1.54-2.62-3.61-1.63-6.02,1.21,1.83,1.83,3.82,1.63,6.02Z"/><path class="cls-5" d="M35.07,135.64c-4.64-1.66-8.31-10.88-5.96-14.97,1.66-2.89,4.06-2.84,6.74-1.67-.18.57-.36,1.14-.54,1.7-.03.31-.07.61-.1.92,1.21,1.37.39,2.43-.16,3.87-1.25,3.28-.4,6.76.03,10.15Z"/><path class="cls-6" d="M35.21,121.62c.03-.31.07-.61.1-.92.06.32.03.62-.1.92Z"/><path class="cls-1" d="M192.68,32.01c5.93.54,10.19-7.56,15.91-2.17,6.05,5.7.15,14.77-2.78,20.04-6.37,11.48-19.04,20.36-32.36,22.23-7.86,1.1-16.25.46-24.13-.19-5.89-.48-14.12-4.76-19.46-4.36-3.52.26-6.12,3.14-9.91,3.47-2.95.25-6.02-1.13-9.01-1.02-7.79.3-10.72,5.88-14.89-2.98,1-2.96,2-5.92,2.99-8.88,2.1-3.97,4.19-7.94,6.29-11.92,1.92-2.29,3.84-4.59,5.77-6.88,13.01.41,26.02,2.12,39.02-.17,5.57-.38,11.2-.41,16.71-1.21,8.76-1.27,17.67-2.09,25.85-5.96Z"/><path class="cls-4" d="M192.68,32.01c-8.17,3.87-17.09,4.69-25.85,5.96-5.51.8-11.14.83-16.71,1.21-8.46-11.07-37.76-8.72-50.21-9.86-10.35-.95-34.36-6.19-41.43,3.65l-4.1-1.69c-3.54-2.23-7.92-2.92-11.04-5.93.1-3.4,1.39-6.03,4.76-7.33,1.25.19,1.94-.4,2.22-1.57,1.26-.47,2.52-.94,3.78-1.41,1.98.13,3.74-.38,5.17-1.81,24.31-6.09,49.68-6.39,74.52-4.05,16.72,1.57,48.15,3.6,59.26,18.08-.12,1.58-.24,3.16-.36,4.75Z"/><path class="cls-3" d="M99.05,58.15c-1,2.96-2,5.92-2.99,8.88-.62.67-1.24,1.34-1.87,2.01-4.02.52-6.98-.62-8.94-4.54-1.43-2.86-3.73-4.47-7.3-2.24-1.96,1.23-4.44,1-6.76.22q-7.93-2.67-7.86-11.1c1.24-.17,2.49-.35,3.73-.52,5.01-.35,11.1,3.81,15,3.43,6.71-.65-.08.61,3.83-3.12,1.5-1.43-.29-3.21,2.46-4.83,1.68-.99,11.31,1.16,11.02,3.46-.27,2.14-5.18.37-5.19,2.39,0,1.07,4.29,4.82,4.87,5.97Z"/><path class="cls-5" d="M63.33,51.39q-.07,8.45,7.86,11.1c2.32.78,4.8,1,6.76-.22,3.57-2.23,5.87-.63,7.3,2.24,1.96,3.93,4.91,5.07,8.94,4.54.18,1.86-.32,3.53-1.36,5.06-1.12.1-2.83-.23-3.25.36-2.76,3.83-4.95,1.73-7.23-.41-1.83-5.17-6.7-2.77-10.1-4.02-4.33-1.72-9.01-1.75-13.49-2.7-6.28-1.33-6.78-2.06-5.1-8.25,3.3-1.47,7.87-1.54,7.21-7.18-.15-1.3,1.34-1.61,2.46-.51Z"/><path class="cls-1" d="M72.25,70.03c3.4,1.25,8.27-1.14,10.1,4.02-.11.64-.21,1.29-.32,1.93-3.6.32-7.21.6-10.81.98-11.42,1.21-22.28-1.36-33.04-4.73-1.54-.23-3.08-.47-4.61-.7-1.3-1.84-3.29-2.12-5.32-2.34-.97-.21-1.95-.42-2.92-.63-2.95-1.51-5.89-3.02-8.84-4.54.37-2.75,2.81-2.68,4.66-3.4,3.55,3.21,50.78,16.18,51.1,9.4Z"/><path class="cls-5" d="M45.65,118.63c3.26,6.71,7.21,9.69,13.42,13.66,1.9,1.21,17.3,7.78,15.07,11.46-1.64,2.71-17.79-6.57-19.73-8.01-2.2-1.63-15.33-16.26-8.76-17.11Z"/><path class="cls-2" d="M38.18,72.23c10.75,3.37,21.62,5.94,33.04,4.73,3.6-.38,7.21-.65,10.81-.98-.17,5.37-2.18,9.99-5.77,13.96-.62-8.75-4.95-9.17-12.6-10.2-5.12-.69-23.31-1.27-25.48-7.52Z"/><path class="cls-2" d="M73.31,92.24c.32-1.61,1.42-2.25,2.96-2.3-.65,1.2-1.69,1.89-2.96,2.3Z"/><path class="cls-6" d="M30.74,33.58c.24-.07.47-.14.7-.22,2.69,1.26,5.38,2.51,8.06,3.77.85.22,1.71.44,2.56.66.22,1.33,3.96,11.93,6.45,10.68,1.25-.62-1.24-8.82,5.38-3.61,5.95,4.68-3.05,2.92-2.92,4.08.12,1.1,2.02,3.73,2.3,5.18-1.07,2.32-2.13,4.64-3.2,6.96-4.73-.74-14.57-1.4-17.78-5.56-2.51-3.25-2.8-11.27-4.21-15.3.88-2.21,1.76-4.42,2.65-6.63ZM47.32,54.62c0-3.81-4.88-6.58-5.68-2.04-.7,3.96,4.59,7.67,5.68,2.04Z"/><path class="cls-2" d="M50.08,61.08c1.07-2.32,2.13-4.64,3.2-6.96,1.52.03,1.01,1.24,1.2,2.04-.27.97-.55,1.94-.82,2.92-1.68,6.19-1.18,6.92,5.1,8.25,4.49.95,9.16.98,13.49,2.7-.32,6.78-47.54-6.2-51.09-9.4.15-.23.25-.48.32-.74,6.45-4.08,26.92,6.17,28.6,1.19Z"/><path class="cls-5" d="M50.08,61.08c-1.68,4.98-22.16-5.28-28.6-1.19,1.85-6.68,3.17-13.53,6.62-19.67,1.4,4.03,1.7,12.06,4.21,15.3,3.21,4.16,13.05,4.82,17.78,5.56Z"/><path class="cls-2" d="M16.5,64.02c2.95,1.51,5.89,3.03,8.84,4.54-4.58,1.65-7.22-.46-8.84-4.54Z"/><path class="cls-2" d="M15.98,52.27c-2.94.6.97-8.9,2.04-7.66,1.33,1.55-1.32,6.72-2.04,7.66Z"/><path class="cls-2" d="M28.25,69.19c2.02.22,4.02.5,5.32,2.34-2.42.69-4.22-.03-5.32-2.34Z"/><path class="cls-5" d="M39.5,37.13c-2.69-1.26-5.38-2.51-8.07-3.77.75-1.42,1.5-2.85,2.25-4.27,2.68-2.62,4.7-6.94,9.65-3.73,3.12,3.01,7.5,3.7,11.04,5.93-2.75.5-13.41-3.89-15.37-2.27-2.86,2.36.04,4.76.49,8.11Z"/><path class="cls-2" d="M59.26,13.23c-1.43,1.43-3.18,1.95-5.17,1.81,1.31-1.78,2.96-2.59,5.17-1.81Z"/><path class="cls-2" d="M50.32,16.46c-.28,1.17-.97,1.76-2.22,1.57.45-.94,1.18-1.47,2.22-1.57Z"/><path class="cls-2" d="M58.48,32.97c7.07-9.84,31.08-4.6,41.43-3.65,12.45,1.14,41.75-1.21,50.21,9.86-13,2.29-26.01.58-39.02.17-11.68-.54-23.43-.16-34.9-3.05-5.23-2.2-10.78-3.06-16.34-3.87-.46.18-.92.36-1.38.54Z"/><path class="cls-5" d="M99.05,58.15c-.58-1.14-4.87-4.89-4.87-5.97,0-2.02,4.91-.25,5.19-2.39.29-2.3-9.34-4.45-11.02-3.46-2.74,1.62-.96,3.4-2.46,4.83-3.91,3.73,2.88,2.47-3.83,3.12-3.91.38-9.99-3.78-15-3.43-.01-4.59-4.14-5.14-6.93-7.01,1.61-3.52,4.33-5.65,8.14-6.41,1.17,5.23,25.68,4.19,30.27,5.24-.74.47-3.52.37-3.16,1.86.34,1.43,8.98,1.77,9.96,1.68-2.1,3.97-4.19,7.94-6.29,11.92Z"/><path class="cls-3" d="M105.34,46.24c-.99.09-9.62-.25-9.96-1.68-.36-1.5,2.43-1.39,3.16-1.86-4.59-1.05-29.1,0-30.27-5.24,2.46-1.63,5.31-.59,7.93-1.14,11.47,2.89,23.23,2.51,34.9,3.05-1.92,2.29-3.84,4.59-5.77,6.88ZM103.73,43.47c-.13.05-.26.1-.39.15.32.49.57.52.75.08-.12-.08-.24-.15-.36-.23Z"/><path class="cls-3" d="M58.48,32.97c.46-.18.92-.36,1.38-.54.34,1.26.79,2.51.33,3.84-3.3-.6-6.19-3.25-9.64-3-4.2.3-4.93,3.16-8.48,4.52-.85-.22-1.71-.44-2.56-.66-.45-3.34-3.35-5.75-.49-8.11,1.96-1.62,12.62,2.77,15.37,2.27,1.37.56,2.73,1.12,4.1,1.69Z"/><path class="cls-6" d="M60.13,43.86c2.79,1.87,6.92,2.42,6.93,7.01-1.25.17-2.49.35-3.73.52-1.12-1.09-2.61-.78-2.46.51.66,5.65-3.91,5.71-7.21,7.18.27-.97.55-1.94.82-2.92,1.62-3.89,3.23-7.79,4.85-11.68.27-.21.54-.41.81-.62Z"/><path class="cls-5" d="M59.32,44.48c-1.62,3.89-3.23,7.79-4.85,11.68-.19-.81.32-2.02-1.2-2.04-.28-1.45-2.18-4.08-2.3-5.18-.13-1.16,8.87.6,2.92-4.08-6.62-5.21-4.13,2.98-5.38,3.61-2.49,1.25-6.23-9.35-6.45-10.68,3.54-1.35,4.27-4.22,8.48-4.51,3.46-.24,6.35,2.4,9.64,3,.36,2.48-1.5,4.19-2.27,6.27-.67,1.81.09,1.9,1.41,1.93Z"/><path class="cls-5" d="M47.32,54.62c-1.09,5.63-6.38,1.92-5.68-2.04.8-4.54,5.69-1.78,5.68,2.04Z"/><path class="cls-1" d="M59.32,44.48c-1.32-.03-2.08-.12-1.41-1.93.77-2.08,2.63-3.8,2.27-6.27.46-1.33.01-2.58-.33-3.84,5.56.81,11.11,1.67,16.34,3.87-2.62.55-5.47-.48-7.93,1.14-3.8.76-6.52,2.89-8.13,6.41-.27.21-.54.41-.81.62Z"/><path class="cls-5" d="M103.73,43.47c.12.08.24.15.36.23-.18.44-.43.41-.75-.08.13-.05.26-.1.39-.15Z"/></g></svg>