<?xml version="1.0" encoding="utf-8"?>
<!-- Generator: Adobe Illustrator 26.2.1, SVG Export Plug-In . SVG Version: 6.00 Build 0)  -->
<svg version="1.1" id="Layer_1" xmlns="http://www.w3.org/2000/svg" xmlns:xlink="http://www.w3.org/1999/xlink" x="0px" y="0px"
	 viewBox="0 0 104.6 104.6" style="enable-background:new 0 0 104.6 104.6;" xml:space="preserve">
<style type="text/css">
	.st0{fill:#FFFFFF;}
	.st1{fill:#8DC63F;}
</style>
<circle class="st0" cx="52.3" cy="52.3" r="52.3"/>
<g>
	<ellipse class="st1" cx="52.5" cy="19.7" rx="34.9" ry="8.8"/>
	<path class="st1" d="M17.6,33.8l3.3,57.6h63.3l3.3-57.6C87.4,33.8,17.6,33.8,17.6,33.8z M31.1,85.1c-3.7,0-6.6-9.5-6.6-21.3
		c0-11.8,3-21.3,6.6-21.3s6.6,9.5,6.6,21.3S34.7,85.1,31.1,85.1z M52.5,85.1c-3.7,0-6.6-9.5-6.6-21.3c0-11.8,3-21.3,6.6-21.3
		s6.6,9.5,6.6,21.3C59.1,75.5,56.2,85.1,52.5,85.1z M73,84c-3.7,0-6.6-9.5-6.6-21.3c0-11.8,3-21.3,6.6-21.3c3.7,0,6.6,9.5,6.6,21.3
		S76.7,84,73,84z"/>
	<path class="st1" d="M53.7,5.4c-3.8,0-6.9,3-6.9,6.8s3.1,6.8,6.9,6.8s6.9-3,6.9-6.8S57.5,5.4,53.7,5.4z M53.6,16.4
		c-2.6,0-4.7-1.9-4.7-4.2S51,8,53.6,8c2.6,0,4.7,1.9,4.7,4.2S56.2,16.4,53.6,16.4z"/>
</g>
</svg>
