<?xml version="1.0" encoding="UTF-8"?><svg id="Layer_2" xmlns="http://www.w3.org/2000/svg" viewBox="0 0 132.25 123.91"><defs><style>.cls-1{fill:#5b6b6b;}.cls-1,.cls-2,.cls-3,.cls-4,.cls-5,.cls-6,.cls-7,.cls-8,.cls-9,.cls-10,.cls-11{stroke-width:0px;}.cls-2{fill:#2f3736;}.cls-3{fill:#708483;}.cls-4{fill:#627272;}.cls-5{fill:#262523;}.cls-6{fill:#dfddde;}.cls-7{fill:#525f5c;}.cls-8{fill:#809397;}.cls-9{fill:#a8a49b;}.cls-10{fill:#434c4b;}.cls-11{fill:#5e6059;}</style></defs><g id="Layer_1-2"><path class="cls-8" d="M70.43,4.23c4.67-3.58,9.94-4.8,15.72-3.99.04.69.07,1.37.11,2.06-2.18.13-4.35.27-6.53.4-2.79-.37-5.14-.06-5.43,3.47-.16,1.53-.68,3.12.75,4.38.69,2.14,2.23,3.47,4.17,4.43,1.93,2.86,5.68,2.75,8.03,4.92.29,1.55,1.39,2.07,2.78,2.07,2.55,0,3.22,1.58,3.32,3.72-2.99.75-5.28-1.99-8.19-1.66-1.63-.4-3.55.42-4.91-1.14.26-3.58-.55-6.27-4.97-5.94-1.65-2.7-6.02-3.58-5.25-7.88.13-1.61.27-3.23.4-4.84Z"/><path class="cls-4" d="M85.16,24.03c2.91-.33,5.19,2.41,8.19,1.66,2.59.53,4.86-.59,7.19-1.41.28-.26.57-.52.85-.78.31-.08.58-.21.84-.4,3.97,1.09,4.55-3.76,7.57-4.33.16,1.42.33,2.84.49,4.26-.34.68-.69,1.36-1.04,2.04-1.64.09-2.52,1.47-3.79,2.21-6.65,3.89-16.76,2.29-20.3-3.26Z"/><path class="cls-8" d="M109.79,18.78c-3.03.56-3.6,5.42-7.57,4.32-.66-1.25-.42-2.54-.18-3.83,4.77-3.92,4.88-6.97.33-11.04-1.2-1.07-2.56-1.98-3.85-2.96.65-.21,1.31-.42,1.96-.62,4.02,1.4,6.4,4.46,8.16,8.13-.32,1.13.1,1.92,1.1,2.44.01,1.18.03,2.37.04,3.55Z"/><path class="cls-3" d="M100.49,4.66c-.65.21-1.31.42-1.96.62-4.09-.99-8.18-1.99-12.26-2.98-.04-.69-.07-1.37-.11-2.06,5.24-.04,10.09,1.2,14.33,4.42Z"/><path class="cls-4" d="M64.17,13.05c.03-.69.05-1.38.08-2.06,1.61-2.66,2.7-5.8,6.18-6.75-.13,1.61-.26,3.23-.39,4.84-3.58-.29-3.74,2.77-4.82,4.93-.3-.02-.6-.03-.91-.05-.04-.3-.08-.6-.14-.9Z"/><path class="cls-4" d="M109.75,15.23c-1-.53-1.43-1.32-1.1-2.44.88.58,1.35,1.35,1.1,2.44Z"/><path class="cls-10" d="M83.1,116.82c-1.01.04-2.02.07-3.03.11-3.63-6.36-10.95-3.4-16.22-6.09-2.35-1.2-6.08-1.32-9.1-2.67-4.63-2.07-7.94-5.9-12.2-8.4-5.12-2.99-10.38-5.74-15.37-8.93-1.6-1.02-2.79-1.72-4.84-1.66-6.31.19-7.52-1.11-8.51-7.7-.12-.77-.34-1.95-.86-2.18-4.91-2.23-7.59-7.31-12.44-9.57.54-3.06.62-6.27,2.81-8.81.98,1.01,1.95,2.01,2.93,3.02,3.29,2.17,5.87,6.1,10.81,4.17,1.26-.49,2.84-.17,3.57,1.08,2.9,4.96,11.3,4.65,11.59,12.25.04,1.09,2.11,1.92,3.6,2.35,1.1.31,2.56.45,3.19,1.21,4.62,5.6,10.27,9.35,17.26,11.55,4.5,1.42,8.45,4.75,12.98,5.87,8.19,2.02,16.62,3.02,24.95,4.45-.38.67-.75,1.34-1.13,2.02-.64.58-1.27,1.17-1.91,1.75-2.27,2.63-6.41,2.81-8.1,6.19Z"/><path class="cls-2" d="M.54,69.74c4.85,2.26,7.53,7.34,12.44,9.57.52.23.74,1.41.86,2.18,1,6.59,2.21,7.89,8.51,7.7,2.05-.06,3.24.64,4.84,1.66,4.99,3.19,10.25,5.94,15.37,8.93,4.26,2.49,7.57,6.33,12.2,8.4,3.02,1.35,6.75,1.47,9.1,2.67,5.26,2.68,12.59-.28,16.22,6.09-2.9.72-4.86,2.76-6.8,4.83-1.04-1.35-2.07-1.22-3.08.03,0,0,.02-.01.02-.01-.65,0-1.29-.01-1.94-.02-2.02-.52-1.15,1.55-1.93,2.15-1.95-1.13-4.09-1.18-6.25-1.1-4.49-.29-9.07.35-13.44-1.22-.4-.16-.81-.33-1.21-.49-1.29-1.5-2.9-2.55-4.71-3.32-.11-1.15-.03-2.38-1.31-3.02-1.68-1.4-2.68-3.54-4.83-4.43-2.65-1.3-3.07-4.67-5.57-6.06-3.71-2.06-6.73-6.17-11.99-3.79-1.3.59-2.16-1.05-3.01-2.11-3.1-3.84-4.16-9.67-10.21-10.71-.28-.05-.76-.47-.73-.56,2.33-6.26-5.1-11.08-2.56-17.36Z"/><path class="cls-11" d="M6.28,63.95c-.98-1.01-1.95-2.01-2.93-3.02.05-.34.1-.67.15-1.01.89-1.06.83-2.38.96-3.64,1.27-2.14,2.54-4.28,3.8-6.43,2.3,3.74-.29,8.32,2.08,12.04,0,.34,0,.68-.01,1.02-1.35.34-2.7.69-4.05,1.03Z"/><path class="cls-3" d="M21.2,35.82c2.69-1.19,4.23-4.21,7.39-4.64,6.65-1.84,12.69-5.57,19.71-6.25-1.36,2.94-3.52,4.86-6.38,6.53-4.77,2.78-10.1,4.9-13.65,9.48-.65.03-1.31.05-1.96.08-1.98-.15-3.9.12-5.52,1.31-3,2.19-3.92.48-4.41-2.21.72-.68,1.44-1.36,2.17-2.04,1.41-.13,2.52-.62,2.66-2.25Z"/><path class="cls-4" d="M16.38,40.11c.49,2.69,1.41,4.41,4.41,2.21,1.62-1.19,3.54-1.46,5.52-1.31.41,4.18-.34,7.89-4.09,10.47-1.11.76-2.34,1.95-3.41.46-4.33-6.08-4.4.51-5.1,2.02-1.2,2.58-.57,5.96-3.37,7.94-2.37-3.72.22-8.31-2.08-12.04,1.4-2.22,2.8-4.43,4.2-6.65,1.31-1.03,2.61-2.07,3.92-3.1Z"/><path class="cls-11" d="M48.3,24.93c-7.02.68-13.06,4.41-19.71,6.25-.22-4.11,3.67-3.59,5.76-5.1.32-.02.64-.07.96-.13,1.06-.07,1.83-.55,2.25-1.55,1.23-.16,2.45-.32,3.68-.48,6.22-2.98,12.98-4.16,19.6-5.79,1.21-.3,2.14-.79,2.37-2.13.37-.69.74-1.37,1.11-2.06.3.02.6.03.91.05.66,1.01,1.33,2.02,1.99,3.04.45,2.59-4.38,1.95-3.09,5.06-5.17,1.55-10.93-.26-15.82,2.84Z"/><path class="cls-4" d="M21.2,35.82c-.13,1.64-1.24,2.13-2.66,2.25.5-1.21,1.39-1.95,2.66-2.25Z"/><path class="cls-7" d="M85.16,24.03c3.54,5.55,13.65,7.15,20.3,3.26,1.26-.74,2.15-2.12,3.79-2.21-.41,1.99-.83,3.97-1.24,5.96-.88-.01-1.75-.02-2.64-.03-3.09.54-6.29.53-9.2,1.91l-7.01-.89c-5.49-2.17-9.93-5.8-13.97-10,.36-.03.73-.07,1.09-.1,1.24.66,2.52,1.17,3.97.98,1.36,1.56,3.28.74,4.91,1.14Z"/><path class="cls-4" d="M105.38,31c.88.01,1.76.02,2.63.03,2.69,3.02,5.38,6.05,8.07,9.07,0,.97,0,1.94,0,2.91-3.7-3.13-8.08-3.36-12.62-3.03-1.42.1-2.89,1.13-4.28-.09.96-1.34,1.92-2.67,2.89-4.01.99-1.71,1.52-3.73,3.32-4.88Z"/><path class="cls-7" d="M124.05,48.95c.41,1.94.82,3.89,1.22,5.83-.05,1.04-.1,2.09-.15,3.13-2.26-.9-1.59-3.57-3-4.98-.68-1.66-1.35-3.33-2.03-4.99.63,0,1.26.01,1.88.02.69.33,1.38.66,2.07.99Z"/><path class="cls-1" d="M121.98,47.96c-.63,0-1.26-.01-1.88-.02-.99-.66-1.98-1.33-2.97-1.99-.35-.98-.7-1.96-1.06-2.93,0-.97,0-1.94,0-2.91,2.52,2.21,4.52,4.8,5.9,7.86Z"/><path class="cls-7" d="M6.28,63.95c1.35-.34,2.7-.69,4.05-1.03,2.87,3.26,5.2.33,6.49-1.31,3.24-4.13,7.2-7.57,10.47-11.63.66-.02,1.32-.03,1.99-.05,3.27,3,2.22,7.71,4.38,11.07,1.17,1.82,1.31,2.57-.96,2.93-1.05.17-2.12.52-1.3,1.85.57.92,1.55,2.24,2.69.81,2.18-2.73,3.5-1.14,5.09.61,1.22,1.34,2.68,2.44,4.04,3.65-.17,1.69.54,2.89,2.04,3.64,1.54.78,2.46,2.31,1.87,3.69-2.71,6.35,1.99,5.93,5.66,6.41,1.8.24,3.63.21,5.45.31,1.31.71,2.4,1.89,4.02,1.97,1.98,1.64,3.96,1.01,5.94.01,8.31,3.14,16.05,8.65,25.75,6.12,1-.26,2.81-.02,3.28.66,3.23,4.63,6.54,1.64,9.75.24,2.86-1.24,5.41-3.14,8.69-3.5,1.64-.18,3.17-1.29,3.93-2.83,2.62-5.31,6-10.34,5.56-16.75-.27-3.97,0-7.97.03-11.95,1.74.31,1.84,2.21,2.99,3.09.02.61.04,1.22.07,1.83,0,1.15-.24,2.35.01,3.44,2.44,10.45-1.19,19.47-6.18,28.33-1.29,2.28-4.11,2.77-4.94,5.26-4.02.62-8.04,1.23-12.05,1.85-1.6.43-3.2.86-4.8,1.28-2.59-1.49-4.5-1.21-5.3,2.02-.27.31-.55.62-.82.93,0,0,.07-.01.07-.01-8.33-1.43-16.77-2.43-24.95-4.45-4.53-1.12-8.48-4.45-12.98-5.87-6.99-2.2-12.65-5.95-17.26-11.55-.63-.76-2.08-.9-3.19-1.21-1.49-.42-3.56-1.26-3.6-2.35-.29-7.6-8.68-7.29-11.59-12.25-.73-1.25-2.31-1.57-3.57-1.08-4.94,1.93-7.52-2-10.81-4.17Z"/><path class="cls-10" d="M117.14,100.8c.83-2.49,3.66-2.98,4.94-5.26,4.99-8.86,8.62-17.88,6.18-28.33-.25-1.09-.02-2.29-.01-3.44,4.1,3.19,2.59,8.14,3.72,12.25.51,1.84.17,3.92.21,5.89-.01,1-.02,2-.04,3-1.68,2.11-.86,4.59-1.02,6.93-.24,2.71-1.48,5.3-1.01,8.1,0,0,.05-.12.05-.12-.31.27-.62.54-.93.81-4.03.06-8.06.12-12.1.17Z"/><path class="cls-10" d="M128.19,61.93c-1.15-.88-1.24-2.78-2.99-3.09-.02-.31-.05-.62-.06-.93.05-1.04.1-2.09.15-3.13,2.51,1.76,4.8,3.61,2.91,7.15Z"/><path class="cls-5" d="M129.24,100.62c.31-.27.62-.54.93-.81-.31.27-.62.54-.93.81Z"/><path class="cls-5" d="M86.26,2.3c4.09.99,8.18,1.99,12.26,2.98,1.29.98,2.64,1.89,3.85,2.96,4.55,4.07,4.44,7.11-.32,11.04-4.83,2.53-9.83,1.19-14.8.62-2.35-2.17-6.1-2.06-8.03-4.92.49-.63.93-1.31,1.49-1.88,1.05-1.08,3.14-1.81,1.76-3.82-1.21-1.77-3.11-1.36-4.86-.83-1.11.34-1.98,1.06-2.57,2.09-1.43-1.26-.9-2.85-.75-4.38,1.81-1.16,3.62-2.31,5.43-3.47,2.18-.13,4.35-.27,6.53-.4Z"/><path class="cls-1" d="M76.29,21.91c-.36.03-.73.07-1.09.1-2.92-1.25-4.29-4.97-7.99-4.98-.66-1.01-1.33-2.02-1.99-3.04,1.08-2.16,1.24-5.21,4.82-4.93-.77,4.3,3.6,5.19,5.25,7.89.33,1.65.67,3.31,1,4.96Z"/><path class="cls-9" d="M87.25,19.9c4.96.57,9.96,1.91,14.8-.62-.25,1.29-.49,2.58.17,3.82-.25.19-.53.32-.84.4-.28.26-.57.52-.85.78-2.33.82-4.59,1.94-7.19,1.41-.1-2.14-.77-3.73-3.32-3.72-1.39,0-2.49-.52-2.78-2.07Z"/><path class="cls-10" d="M75.05,10.55c.58-1.03,1.45-1.75,2.57-2.09,1.74-.53,3.64-.94,4.86.83,1.38,2.01-.71,2.73-1.76,3.82-.55.57-1,1.25-1.49,1.88-1.94-.96-3.49-2.29-4.17-4.43Z"/><path class="cls-3" d="M76.29,21.91c-.33-1.65-.67-3.31-1-4.96,4.42-.33,5.23,2.36,4.97,5.94-1.45.19-2.73-.32-3.97-.98Z"/><path class="cls-4" d="M79.73,2.7c-1.81,1.16-3.62,2.31-5.43,3.47.29-3.53,2.64-3.84,5.43-3.47Z"/><path class="cls-8" d="M100.53,24.28c.28-.26.57-.52.85-.78-.28.26-.57.52-.85.78Z"/><path class="cls-11" d="M68.28,121.76c.65,0,1.29.01,1.94.02-.56.38-1.13.76-1.69,1.14-.08-.39-.16-.77-.24-1.16Z"/><path class="cls-11" d="M91.2,110.63c-.03,1.71-1.18,2.81-2.15,4.02-2.35-.29-3.24,3.42-5.94,2.17,1.69-3.38,5.83-3.56,8.09-6.19Z"/><path class="cls-11" d="M70.19,121.79c1.01-1.26,2.04-1.38,3.08-.03-1.03.01-2.05.02-3.08.03Z"/><path class="cls-1" d="M27.29,49.97c-3.27,4.06-7.23,7.5-10.47,11.63-1.29,1.64-3.61,4.57-6.49,1.31,0-.34,0-.68.01-1.02,2.8-1.98,2.17-5.36,3.37-7.94.7-1.5.77-8.09,5.1-2.02,1.06,1.49,2.3.3,3.41-.46,3.75-2.58,4.5-6.29,4.09-10.47.65-.03,1.31-.05,1.96-.08,2.21,3.29-1.36,5.95-.99,9.04Z"/><path class="cls-4" d="M27.29,49.97c-.37-3.09,3.2-5.75.99-9.04,3.55-4.59,8.87-6.7,13.65-9.48,2.86-1.67,5.02-3.59,6.38-6.53,4.89-3.1,10.65-1.29,15.82-2.84,0,.62,0,1.25-.01,1.87-.63.35-1.26.7-1.89,1.05-1.75-.07-2.97.77-4.18,2.02-2.4,2.48-5.36,4.13-8.73,5.01-3.23.63-5.34,2.49-7.15,5.31-3.29,5.14-9.43,7.51-12.89,12.58-.66.02-1.32.03-1.99.05Z"/><path class="cls-10" d="M64.11,23.96c0-.62.01-1.25.01-1.87-1.3-3.1,3.54-2.46,3.09-5.05,3.69.01,5.07,3.73,7.99,4.98,4.03,4.2,8.48,7.83,13.97,10-2.46,1.62-4.5.02-6.41-1.09-5.22-3.03-10.33-6.27-15.28-9.3-1.72,8.72,4.14,11.17,10.65,13.14,2.67.81,5.61.69,8.06,2.28,0,.64,0,1.28,0,1.91h-2c-2.21-1.29-4.37-2.95-7-.9-.99-.03-1.98-.06-2.98-.09-1.3-.72-2.61-1.45-3.91-2.17-.24-3.56-6.09-3.46-5.11-7.82.01-1.44.11-2.9-1.07-4.02Z"/><path class="cls-2" d="M86.18,37.05c-2.45-1.58-5.38-1.47-8.06-2.28-6.51-1.97-12.36-4.42-10.65-13.14,4.96,3.03,10.06,6.27,15.28,9.3,1.91,1.11,3.94,2.71,6.41,1.09,2.34.3,4.67.6,7.01.89,1.76,3.39-1.97,2.73-3,4.07-2.33.02-4.66.05-6.99.07Z"/><path class="cls-10" d="M93.17,36.98c1.03-1.33,4.76-.67,3-4.07,2.91-1.38,6.11-1.37,9.2-1.91-1.8,1.15-2.33,3.18-3.32,4.88-3.04-.27-5.65,2.97-8.88,1.09Z"/><path class="cls-3" d="M116.07,43.02c.35.98.7,1.96,1.06,2.93-1.02,5.57,1.05,11.48-1.86,16.86-.18.33.02,1.08.3,1.41,3.48,4.07.37,8.11-.33,11.98-.68,3.74-5.12,4.22-7.82,6.11-1.34.93-2.9-1.54-3.3-3.47-.07-2.37,1.74-5.04-1.15-6.94-.62-2.66-1.25-5.32-1.87-7.98-.17-7.07-.59-14.07-4.95-20.11.35-1.27.7-2.54,1.05-3.81.66-.03,1.32-.07,1.98-.1,1.4,1.22,2.87.19,4.28.09,4.54-.32,8.92-.1,12.62,3.03Z"/><path class="cls-7" d="M99.16,39.89c-.66.03-1.32.07-1.98.1-3.65-.54-7.5.98-11.01-1.04,0-.64,0-1.28,0-1.91,2.33-.02,4.66-.05,6.99-.07,3.24,1.88,5.84-1.36,8.88-1.09-.96,1.33-1.92,2.67-2.89,4.01Z"/><path class="cls-1" d="M125.13,57.91c.02.31.04.62.06.93-.03,3.98-.3,7.99-.03,11.95.43,6.4-2.94,11.43-5.56,16.75-.76,1.54-2.29,2.65-3.93,2.83-3.28.36-5.83,2.25-8.69,3.5-3.21,1.39-6.52,4.39-9.75-.24-.47-.68-2.27-.92-3.28-.66-9.7,2.53-17.44-2.97-25.75-6.12.31-1.31.63-2.61.94-3.92,2.54-4.42,6.05-.16,8.99-1.01.73,3.11,3.53,4.04,5.72,3.46,2.62-.69,4.39,1.09,6.18,1.08,5.65-.04,10.98,8.14,16.86.84.09-.11.29-.18.45-.19,5.97-.43,10.03-3.15,13-8.64,1.56-2.88,2.7-5.12,2.48-8.54-.37-5.65-1.72-11.31-.7-17.02,1.41,1.42.74,4.08,3,4.98Z"/><path class="cls-4" d="M122.13,52.93c-1.02,5.72.33,11.37.7,17.02.22,3.42-.92,5.66-2.48,8.54-2.97,5.49-7.03,8.21-13,8.64-.16.01-.36.08-.45.19-5.88,7.3-11.21-.88-16.86-.84-1.79.01-3.56-1.77-6.18-1.08-2.2.58-5-.36-5.72-3.47,0,0,.09-.1.09-.1,2.13.27,4.26.69,6.4.77,2.69.11,5.75,1.28,7.62-1.96.99-.32,1.98-.64,2.97-.95,3.27,2.8,5.93-.64,8.91-.86.39,1.93,1.96,4.4,3.3,3.47,2.7-1.89,7.14-2.37,7.82-6.11.7-3.87,3.81-7.91.33-11.98-.28-.33-.48-1.08-.3-1.41,2.92-5.38.85-11.29,1.86-16.86.99.66,1.98,1.33,2.97,1.99.68,1.66,1.35,3.33,2.03,4.99Z"/><path class="cls-1" d="M29.27,49.93c3.46-5.07,9.6-7.45,12.89-12.58,1.81-2.82,3.92-4.68,7.15-5.31.78,3.09,4.31,2.82,5.94,4.88-.68.99-1.36,1.98-2.04,2.97-1.95.39-3.03,1.78-4.13,3.3-2.88,3.96-5.88,7.83-8.84,11.74-2.19.53-3.82,1.5-3.56,4.32,2.23-.38,2.63-2.15,3.59-3.36,1.31,0,2.63.01,3.94.02,1,3.6,1.99,7.21,2.99,10.81-1.09.34-1.82,1.01-2,2.18-.67.65-1.33,1.3-2,1.94-1.36-1.21-2.82-2.31-4.04-3.65-1.59-1.75-2.91-3.34-5.09-.61-1.14,1.43-2.12.11-2.69-.81-.82-1.33.25-1.68,1.3-1.85,2.27-.36,2.13-1.11.96-2.93-2.16-3.36-1.11-8.07-4.38-11.07Z"/><path class="cls-3" d="M43.22,70.84c.67-.65,1.33-1.3,2-1.94,1.9,1.02,2.93,2.59,3.13,4.75.13,1.33.93,2.09,2.3,2.12,1.08.02,2.01-.33,2.29-1.47.3-1.26-.14-2.4-1.31-2.93-2-.9-2.51-2.46-2.39-4.44,4.38-3.41,5.59-8.77,7.71-13.41,3.48-7.63,4.33-8.64,12.33-8.45-.7,1.67-1.32,3.37-2.11,4.99-2.96,6.07-6.34,11.96-8.23,18.48-.95,3.28-1.96,6.8,1.4,9.56-.7,2.27-1.4,4.54-2.1,6.8-1.82-.09-3.65-.07-5.45-.31-3.67-.48-8.37-.06-5.66-6.41.59-1.38-.33-2.91-1.87-3.69-1.49-.75-2.21-1.95-2.04-3.64Z"/><path class="cls-1" d="M58.24,84.88c.7-2.27,1.4-4.54,2.1-6.81.65-.39,1.3-.78,1.95-1.16,2.36,1.26,1.64,4.53,3.85,5.9-2.07.6-2.78,2.51-3.88,4.04-1.62-.08-2.71-1.26-4.02-1.97Z"/><path class="cls-3" d="M62.26,86.85c1.1-1.53,1.81-3.44,3.88-4.04,1,.05,2,.09,3,.14-.31,1.31-.63,2.61-.94,3.92-1.98,1-3.96,1.63-5.94-.01Z"/><path class="cls-10" d="M94.99,105.95c-.27.31-.55.62-.82.93.27-.31.55-.62.82-.93Z"/><path class="cls-7" d="M55.25,36.91c-1.63-2.06-5.17-1.79-5.94-4.88,3.37-.88,6.33-2.52,8.73-5.01,1.21-1.25,2.43-2.09,4.18-2.02-.02,2,.94,3.01,2.97,2.98-.98,4.36,4.87,4.26,5.11,7.82-.81.82-1.54,1.76-2.45,2.44-2.3,1.72-5.17,5.04-5.17-1.49,0-2.04-1.72-1.92-2.89-1.66-1.57.34-3.02,1.2-4.52,1.83Z"/><path class="cls-11" d="M65.18,27.98c-2.02.03-2.99-.98-2.97-2.98.63-.35,1.26-.7,1.89-1.05,1.19,1.12,1.09,2.58,1.07,4.02Z"/><path class="cls-4" d="M55.25,36.91c1.5-.63,2.96-1.49,4.52-1.83,1.18-.26,2.89-.37,2.89,1.66,0,6.53,2.86,3.21,5.17,1.49.91-.68,1.64-1.62,2.45-2.44,1.3.72,2.61,1.44,3.91,2.17-.03,1.3-.05,2.6-.08,3.91-2.36-.08-3.45,1.77-4.84,3.18-8-.18-8.85.82-12.33,8.45-2.12,4.65-3.33,10-7.71,13.41-.68-.07-1.35-.13-2.03-.2-1-3.6-1.99-7.21-2.99-10.81.7-2.41,3.13-3.32,4.48-5.1,2.42-3.2,6.53-5.85,4.52-10.92.68-.99,1.36-1.98,2.04-2.97Z"/><path class="cls-4" d="M86.18,38.96c3.51,2.01,7.36.49,11.01,1.04-.35,1.27-.7,2.54-1.05,3.82-2.52-1.42-5.21-.88-7.87-.72-2.64-1.86-5.39-.09-8.08-.22-1.02-.63-2.03-1.26-3.05-1.88.02-.34.04-.68.07-1.02,2.22-1.04,5.07,2.28,6.97-1.01h2Z"/><path class="cls-7" d="M84.18,38.95c-1.9,3.29-4.75-.04-6.97,1.01-.01-.63-.02-1.27-.03-1.9,2.63-2.04,4.79-.38,7,.89Z"/><path class="cls-8" d="M77.18,38.06c.01.63.02,1.27.03,1.9-.02.34-.04.68-.07,1.02-.8.88-1.86.94-2.94.98l-.08-.09c.03-1.3.05-2.6.08-3.91.99.03,1.98.06,2.98.09Z"/><path class="cls-9" d="M88.27,43.09c2.66-.16,5.36-.69,7.87.72,4.36,6.04,4.78,13.04,4.95,20.11-.47.81-.95,1.61-1.59,2.71-.82-3.32-1.49-6.4-1.33-9.62.14-2.88-1.32-3.77-3.96-3.18-1.61-2.13-2.32-4.58-2.41-7.27-2.16,7.02,1.95,14.14-.99,21.09.98-8.41-6.04-15.93-2.54-24.57Z"/><path class="cls-6" d="M94.2,53.83c2.65-.59,4.1.3,3.96,3.18-.15,3.21.51,6.3,1.33,9.62.65-1.1,1.12-1.9,1.59-2.71.62,2.66,1.25,5.32,1.87,7.98-2.03,3.15-3.82,6.54-7.75,7.8-.99.32-1.98.64-2.97.95,2.94-5.73,1.49-11.74,1.25-17.71-.12-3.01-1.15-6.21.7-9.11ZM95.86,58.35c-1.52,6.18-.4,12.08,2.04,17.84,2.13-6.25-1.6-11.87-2.04-17.84Z"/><path class="cls-9" d="M95.21,79.7c3.94-1.26,5.72-4.65,7.75-7.8,2.89,1.9,1.09,4.57,1.15,6.94-2.98.22-5.64,3.66-8.91.86Z"/><path class="cls-4" d="M69.14,82.94c-1-.05-2-.09-3-.14-2.21-1.36-1.49-4.63-3.85-5.9.63-.68,1.27-1.36,1.9-2.04,1.99.22,3.96,1.79,5.99.12,6.1-1.74,6.38,3.37,8.05,6.85,0,0-.09.1-.09.1-2.94.84-6.45-3.41-8.99,1.01Z"/><path class="cls-8" d="M78.23,81.84c-1.67-3.47-1.95-8.58-8.05-6.85-.57-6.86,2.78-13.3,2.01-20.35-2.78,3.61-6.25,6.7-7.64,11.11-.92,2.93-2.18,6.01-.35,9.12-.63.68-1.27,1.36-1.9,2.04-.65.39-1.3.77-1.95,1.16-3.36-2.75-2.35-6.28-1.4-9.56,1.89-6.52,5.27-12.41,8.23-18.48.79-1.62,1.41-3.33,2.11-4.99,1.39-1.4,2.48-3.25,4.84-3.17,0,0,.08.09.08.09-1.45,3.16.02,6.36-.62,9.57,2.72-2.78,3.07-6.85,6.61-8.67,2.69.14,5.43-1.63,8.08.22-3.5,8.64,3.52,16.16,2.54,24.57,2.94-6.96-1.17-14.08.99-21.09.09,2.69.8,5.14,2.41,7.27-1.86,2.9-.82,6.1-.7,9.11.24,5.97,1.68,11.98-1.25,17.71-1.87,3.23-4.92,2.06-7.62,1.96-2.14-.08-4.27-.5-6.4-.77Z"/><path class="cls-3" d="M53.22,39.88c2.02,5.08-2.1,7.73-4.52,10.92-1.35,1.78-3.78,2.68-4.48,5.1-1.31,0-2.63-.01-3.94-.02,0-.32-.01-.64-.03-.96,2.96-3.91,5.96-7.78,8.84-11.74,1.1-1.52,2.19-2.91,4.13-3.3Z"/><path class="cls-8" d="M47.21,66.71c.68.07,1.35.13,2.03.2-.13,1.97.39,3.54,2.39,4.44,1.17.53,1.61,1.68,1.31,2.93-.27,1.14-1.21,1.5-2.29,1.47-1.37-.03-2.18-.79-2.3-2.12-.2-2.16-1.23-3.73-3.13-4.75.18-1.17.91-1.84,2-2.18Z"/><path class="cls-4" d="M40.24,54.92c.02.32.03.64.03.96-.96,1.2-1.36,2.98-3.59,3.36-.26-2.82,1.37-3.79,3.56-4.32Z"/><path class="cls-3" d="M80.19,42.87c-3.54,1.82-3.89,5.89-6.61,8.67.64-3.21-.83-6.41.62-9.57,1.08-.04,2.15-.1,2.94-.98,1.02.63,2.03,1.26,3.05,1.88Z"/><path class="cls-9" d="M95.86,58.35c.44,5.97,4.17,11.59,2.04,17.84-2.44-5.76-3.56-11.66-2.04-17.84Z"/><path class="cls-3" d="M64.19,74.87c-1.83-3.11-.57-6.19.35-9.12,1.39-4.42,4.86-7.5,7.64-11.11.77,7.05-2.57,13.5-2.01,20.35-2.03,1.67-3.99.1-5.99-.12Z"/></g></svg>